<svg width="24" height="24" viewBox="0 0 24 24" fill="none" xmlns="http://www.w3.org/2000/svg">
<path d="M20 20.0009H4C3.4863 20.0163 2.98744 19.8275 2.6126 19.4759C2.23776 19.1243 2.01749 18.6385 2 18.1249V5.8759C2.01749 5.36236 2.23779 4.87668 2.61266 4.52524C2.98753 4.1738 3.4864 3.98526 4 4.0009H20C20.5136 3.98526 21.0125 4.1738 21.3873 4.52524C21.7622 4.87668 21.9825 5.36236 22 5.8759V18.1259C21.9822 18.6394 21.7619 19.1249 21.3871 19.4763C21.0123 19.8276 20.5135 20.0163 20 20.0009ZM4 6.0009V17.9899L20 18.0009V6.0119L4 6.0009ZM13.43 16.0009H6C6.07353 15.173 6.46534 14.4058 7.093 13.8609C7.79183 13.1676 8.73081 12.7701 9.715 12.7509C10.699 12.7709 11.638 13.1679 12.337 13.8609C12.9645 14.406 13.3563 15.173 13.43 16.0009ZM18 15.0009H15V13.0009H18V15.0009ZM9.715 12.0009C9.44987 12.0101 9.18569 11.9647 8.93887 11.8674C8.69205 11.7702 8.46787 11.6232 8.28029 11.4356C8.0927 11.248 7.94571 11.0239 7.84847 10.777C7.75122 10.5302 7.70579 10.266 7.715 10.0009C7.70594 9.73581 7.75147 9.47169 7.84877 9.22494C7.94607 8.97819 8.09306 8.75407 8.28062 8.56652C8.46817 8.37896 8.69229 8.23197 8.93904 8.13467C9.18579 8.03737 9.44991 7.99184 9.715 8.0009C9.98009 7.99184 10.2442 8.03737 10.491 8.13467C10.7377 8.23197 10.9618 8.37896 11.1494 8.56652C11.3369 8.75407 11.4839 8.97819 11.5812 9.22494C11.6785 9.47169 11.7241 9.73581 11.715 10.0009C11.7242 10.266 11.6788 10.5302 11.5815 10.777C11.4843 11.0239 11.3373 11.248 11.1497 11.4356C10.9621 11.6232 10.738 11.7702 10.4911 11.8674C10.2443 11.9647 9.98013 12.0101 9.715 12.0009V12.0009ZM18 11.0009H14V9.0009H18V11.0009Z" fill="black"/>
</svg>
