<svg width="20" height="20" viewBox="0 0 20 20" fill="none" xmlns="http://www.w3.org/2000/svg">
<path d="M10.0004 0.400391C4.69839 0.400391 0.400391 4.69839 0.400391 10.0004C0.400391 15.3024 4.69839 19.6004 10.0004 19.6004C15.3024 19.6004 19.6004 15.3024 19.6004 10.0004C19.6004 4.69839 15.3024 0.400391 10.0004 0.400391ZM7.65039 13.9794H5.70639V7.72339H7.65039V13.9794ZM6.66639 6.95539C6.05239 6.95539 5.65539 6.52039 5.65539 5.98239C5.65539 5.43339 6.06439 5.01139 6.69139 5.01139C7.31839 5.01139 7.70239 5.43339 7.71439 5.98239C7.71439 6.52039 7.31839 6.95539 6.66639 6.95539ZM14.7504 13.9794H12.8064V10.5124C12.8064 9.70539 12.5244 9.15739 11.8214 9.15739C11.2844 9.15739 10.9654 9.52839 10.8244 9.88539C10.7724 10.0124 10.7594 10.1924 10.7594 10.3714V13.9784H8.81439V9.71839C8.81439 8.93739 8.78939 8.28439 8.76339 7.72239H10.4524L10.5414 8.59139H10.5804C10.8364 8.18339 11.4634 7.58139 12.5124 7.58139C13.7914 7.58139 14.7504 8.43839 14.7504 10.2804V13.9794Z" fill="black"/>
</svg>
