<svg width="20" height="16" viewBox="0 0 20 16" fill="none" xmlns="http://www.w3.org/2000/svg">
<path d="M17.3158 4.24544C17.3238 4.40744 17.3268 4.57144 17.3268 4.73344C17.3268 9.72344 13.5298 15.4754 6.5868 15.4754C4.4538 15.4754 2.4708 14.8504 0.799805 13.7784C1.78818 13.898 2.79042 13.8215 3.74924 13.5535C4.70806 13.2855 5.60467 12.8312 6.3878 12.2164C5.60022 12.2016 4.83698 11.9409 4.20478 11.471C3.57259 11.0011 3.10305 10.3453 2.8618 9.59544C3.42787 9.7013 4.01045 9.67909 4.5668 9.53044C3.71242 9.35719 2.9442 8.89388 2.39235 8.21901C1.8405 7.54413 1.53895 6.69922 1.5388 5.82744V5.78044C2.063 6.07204 2.64927 6.23421 3.2488 6.25344C2.44868 5.72002 1.88228 4.90136 1.66522 3.96455C1.44816 3.02773 1.5968 2.04339 2.0808 1.21244C3.02859 2.3789 4.21116 3.33294 5.55168 4.0126C6.89221 4.69225 8.36071 5.08231 9.8618 5.15744C9.79686 4.87506 9.76432 4.5862 9.7648 4.29644C9.7648 3.80088 9.86243 3.31017 10.0521 2.85235C10.2418 2.39452 10.5198 1.97854 10.8702 1.62818C11.2207 1.27781 11.6368 0.99991 12.0946 0.810358C12.5525 0.620806 13.0432 0.523311 13.5388 0.523443C14.0553 0.5226 14.5664 0.627882 15.0405 0.832758C15.5146 1.03763 15.9415 1.33773 16.2948 1.71444C17.1399 1.54714 17.9505 1.2374 18.6918 0.798443C18.4099 1.67265 17.8199 2.41466 17.0318 2.88644C17.7801 2.79774 18.5108 2.59752 19.1998 2.29244C18.6937 3.05088 18.0556 3.71236 17.3158 4.24544Z" fill="black"/>
</svg>
