<svg width="18" height="18" viewBox="0 0 18 18" fill="none" xmlns="http://www.w3.org/2000/svg">
<g clip-path="url(#clip0)">
<path d="M0.989062 4.58822C0.989062 6.08222 1.48806 7.16022 2.47106 7.79322C3.27706 8.31322 4.21106 8.39122 4.69706 8.39122C4.81506 8.39122 4.91006 8.38522 4.97606 8.38122C4.97606 8.38122 4.82206 9.38522 5.56606 10.3772H5.53206C4.24306 10.3772 0.0390625 10.6462 0.0390625 14.1042C0.0390625 17.6202 3.90006 17.7992 4.67506 17.7992C4.73606 17.7992 4.77206 17.7972 4.77206 17.7972C4.78006 17.7972 4.83506 17.7992 4.93006 17.7992C5.42706 17.7992 6.71206 17.7372 7.90506 17.1562C9.45306 16.4062 10.2381 15.0972 10.2381 13.2712C10.2381 11.5072 9.04206 10.4572 8.16906 9.68922C7.63606 9.22022 7.17506 8.81622 7.17506 8.42322C7.17506 8.02322 7.51206 7.72222 7.93706 7.34122C8.62606 6.72622 9.27606 5.84922 9.27606 4.19122C9.27606 2.73422 9.08706 1.75522 7.92206 1.13422C8.04306 1.07222 8.47306 1.02722 8.68506 0.997219C9.31606 0.911219 10.2391 0.813219 10.2391 0.298219V0.199219H5.64006C5.59406 0.201219 0.989062 0.371219 0.989062 4.58822ZM8.41306 13.6012C8.50106 15.0072 7.29806 16.0442 5.49106 16.1752C3.65606 16.3102 2.14606 15.4842 2.05806 14.0792C2.01506 13.4032 2.31206 12.7432 2.89306 12.2162C3.48206 11.6832 4.29106 11.3532 5.17106 11.2882C5.27506 11.2822 5.37806 11.2762 5.48106 11.2762C7.18006 11.2772 8.33006 12.2752 8.41306 13.6012ZM7.21206 3.62522C7.66306 5.21322 6.98206 6.87122 5.89606 7.17822C5.77105 7.21306 5.64184 7.23055 5.51206 7.23022C4.51806 7.23022 3.53306 6.22422 3.16706 4.83722C2.96306 4.06122 2.98006 3.37922 3.21406 2.72522C3.44306 2.08022 3.85706 1.64722 4.37706 1.50022C4.50206 1.46522 4.63106 1.44722 4.76206 1.44722C5.96206 1.44722 6.73406 1.94522 7.21206 3.62522ZM15.0001 6.99922V3.99922H13.0001V6.99922H10.0001V8.99922H13.0001V11.9992H15.0001V8.99922H18.0001V6.99922H15.0001Z" fill="black"/>
</g>
<defs>
<clipPath id="clip0">
<rect width="18" height="18" fill="white"/>
</clipPath>
</defs>
</svg>
