<svg width="24" height="24" viewBox="0 0 24 24" fill="none" xmlns="http://www.w3.org/2000/svg">
<path d="M13.7802 10.2195C13.638 10.087 13.4499 10.0148 13.2556 10.0183C13.0613 10.0217 12.8759 10.1004 12.7385 10.2378C12.6011 10.3752 12.5224 10.5606 12.519 10.7549C12.5156 10.9492 12.5877 11.1373 12.7202 11.2795L13.4402 11.9995L12.7202 12.7195C12.6465 12.7881 12.5874 12.8709 12.5464 12.9629C12.5054 13.0549 12.4833 13.1542 12.4816 13.2549C12.4798 13.3556 12.4983 13.4557 12.536 13.549C12.5738 13.6424 12.6299 13.7273 12.7011 13.7985C12.7723 13.8697 12.8572 13.9259 12.9506 13.9636C13.0439 14.0013 13.144 14.0198 13.2447 14.018C13.3454 14.0163 13.4447 13.9942 13.5367 13.9532C13.6287 13.9122 13.7115 13.8531 13.7802 13.7795L14.5002 13.0595L15.2202 13.7795C15.361 13.92 15.5519 13.9989 15.7509 13.9987C15.9498 13.9985 16.1406 13.9193 16.2812 13.7785C16.4217 13.6376 16.5006 13.4467 16.5004 13.2477C16.5002 13.0488 16.421 12.858 16.2802 12.7175L15.5612 11.9995L16.2812 11.2795C16.3528 11.2102 16.4099 11.1274 16.4491 11.0359C16.4884 10.9444 16.509 10.846 16.5098 10.7464C16.5107 10.6468 16.4916 10.5481 16.4539 10.4559C16.4161 10.3638 16.3604 10.28 16.2899 10.2097C16.2195 10.1393 16.1357 10.0836 16.0435 10.046C15.9513 10.0083 15.8526 9.98935 15.753 9.99027C15.6534 9.99118 15.555 10.0119 15.4635 10.0513C15.372 10.0906 15.2893 10.1478 15.2202 10.2195L14.5002 10.9395L13.7802 10.2195V10.2195Z" fill="black"/>
<path d="M7.22032 10.2192C7.36094 10.0787 7.55157 9.99984 7.75032 9.99984C7.94907 9.99984 8.13969 10.0787 8.28032 10.2192L9.00032 10.9392L9.72032 10.2192C9.78898 10.1455 9.87178 10.0864 9.96378 10.0454C10.0558 10.0044 10.1551 9.98236 10.2558 9.98059C10.3565 9.97881 10.4565 9.99733 10.5499 10.0351C10.6433 10.0728 10.7281 10.1289 10.7994 10.2001C10.8706 10.2714 10.9267 10.3562 10.9644 10.4496C11.0022 10.543 11.0207 10.643 11.0189 10.7437C11.0171 10.8444 10.9951 10.9437 10.9541 11.0357C10.9131 11.1277 10.854 11.2105 10.7803 11.2792L10.0613 11.9992L10.7813 12.7172C10.851 12.7868 10.9064 12.8696 10.9441 12.9606C10.9819 13.0517 11.0014 13.1493 11.0014 13.2478C11.0015 13.3464 10.9821 13.444 10.9444 13.5351C10.9067 13.6262 10.8515 13.7089 10.7818 13.7787C10.7122 13.8484 10.6294 13.9037 10.5384 13.9415C10.4473 13.9793 10.3497 13.9987 10.2512 13.9988C10.1526 13.9988 10.055 13.9794 9.9639 13.9418C9.87282 13.9041 9.79005 13.8488 9.72032 13.7792L9.00032 13.0592L8.28032 13.7792C8.13814 13.9117 7.9501 13.9838 7.75579 13.9804C7.56149 13.9769 7.37611 13.8982 7.23869 13.7608C7.10128 13.6234 7.02257 13.438 7.01914 13.2437C7.01571 13.0494 7.08784 12.8614 7.22032 12.7192L7.94032 11.9992L7.22032 11.2792C7.07987 11.1386 7.00098 10.9479 7.00098 10.7492C7.00098 10.5504 7.07987 10.3598 7.22032 10.2192V10.2192Z" fill="black"/>
<path d="M18.5 13.5C18.3011 13.5 18.1103 13.579 17.9697 13.7197C17.829 13.8603 17.75 14.0511 17.75 14.25C17.75 14.4489 17.829 14.6397 17.9697 14.7803C18.1103 14.921 18.3011 15 18.5 15H20.25C20.4489 15 20.6397 14.921 20.7803 14.7803C20.921 14.6397 21 14.4489 21 14.25C21 14.0511 20.921 13.8603 20.7803 13.7197C20.6397 13.579 20.4489 13.5 20.25 13.5H18.5Z" fill="black"/>
<path d="M7.25 5C6.38805 5 5.5614 5.34241 4.9519 5.9519C4.34241 6.5614 4 7.38805 4 8.25V15.75C4 16.612 4.34241 17.4386 4.9519 18.0481C5.5614 18.6576 6.38805 19 7.25 19H20.75C21.1768 19 21.5994 18.9159 21.9937 18.7526C22.388 18.5893 22.7463 18.3499 23.0481 18.0481C23.3499 17.7463 23.5893 17.388 23.7526 16.9937C23.9159 16.5994 24 16.1768 24 15.75V8.25C24 7.8232 23.9159 7.40059 23.7526 7.00628C23.5893 6.61197 23.3499 6.25369 23.0481 5.9519C22.7463 5.65011 22.388 5.41072 21.9937 5.24739C21.5994 5.08406 21.1768 5 20.75 5H7.25ZM5.5 8.25C5.5 7.283 6.283 6.5 7.25 6.5H20.75C21.717 6.5 22.5 7.283 22.5 8.25V15.75C22.5 16.2141 22.3156 16.6592 21.9874 16.9874C21.6592 17.3156 21.2141 17.5 20.75 17.5H7.25C6.78587 17.5 6.34075 17.3156 6.01256 16.9874C5.68437 16.6592 5.5 16.2141 5.5 15.75V8.25Z" fill="black"/>
</svg>
