<svg width="20" height="14" viewBox="0 0 20 14" fill="none" xmlns="http://www.w3.org/2000/svg">
<path d="M3.25 0C2.38805 0 1.5614 0.34241 0.951903 0.951903C0.34241 1.5614 0 2.38805 0 3.25V10.75C0 11.612 0.34241 12.4386 0.951903 13.0481C1.5614 13.6576 2.38805 14 3.25 14H16.75C17.1768 14 17.5994 13.9159 17.9937 13.7526C18.388 13.5893 18.7463 13.3499 19.0481 13.0481C19.3499 12.7463 19.5893 12.388 19.7526 11.9937C19.9159 11.5994 20 11.1768 20 10.75V3.25C20 2.8232 19.9159 2.40059 19.7526 2.00628C19.5893 1.61197 19.3499 1.25369 19.0481 0.951903C18.7463 0.650112 18.388 0.410719 17.9937 0.247392C17.5994 0.0840639 17.1768 0 16.75 0H3.25ZM4.28 5.22L5 5.94L5.72 5.22C5.78866 5.14631 5.87146 5.08721 5.96346 5.04622C6.05546 5.00523 6.15478 4.98318 6.25548 4.98141C6.35618 4.97963 6.45621 4.99816 6.5496 5.03588C6.64299 5.0736 6.72782 5.12974 6.79904 5.20096C6.87026 5.27218 6.9264 5.35701 6.96412 5.4504C7.00184 5.54379 7.02037 5.64382 7.01859 5.74452C7.01682 5.84522 6.99477 5.94454 6.95378 6.03654C6.91279 6.12854 6.85369 6.21134 6.78 6.28L6.061 7L6.781 7.718C6.85073 7.78767 6.90606 7.87038 6.94382 7.96143C6.98159 8.05248 7.00105 8.15008 7.00109 8.24865C7.00114 8.34722 6.98177 8.44483 6.94409 8.53591C6.90642 8.627 6.85117 8.70977 6.7815 8.7795C6.71183 8.84923 6.62912 8.90456 6.53807 8.94232C6.44702 8.98009 6.34942 8.99955 6.25085 8.99959C6.15228 8.99964 6.05467 8.98027 5.96359 8.94259C5.8725 8.90492 5.78973 8.84967 5.72 8.78L5 8.06L4.28 8.78C4.13783 8.91248 3.94978 8.9846 3.75548 8.98118C3.56118 8.97775 3.37579 8.89903 3.23838 8.76162C3.10097 8.62421 3.02225 8.43882 3.01883 8.24452C3.0154 8.05022 3.08752 7.86218 3.22 7.72L3.94 7L3.22 6.28C3.08752 6.13782 3.0154 5.94978 3.01883 5.75548C3.02225 5.56118 3.10097 5.37579 3.23838 5.23838C3.37579 5.10097 3.56118 5.02225 3.75548 5.01882C3.94978 5.0154 4.13783 5.08752 4.28 5.22ZM9.78 5.22L10.5 5.94L11.22 5.22C11.2887 5.14631 11.3715 5.08721 11.4635 5.04622C11.5555 5.00523 11.6548 4.98318 11.7555 4.98141C11.8562 4.97963 11.9562 4.99816 12.0496 5.03588C12.143 5.0736 12.2278 5.12974 12.299 5.20096C12.3703 5.27218 12.4264 5.35701 12.4641 5.4504C12.5018 5.54379 12.5204 5.64382 12.5186 5.74452C12.5168 5.84522 12.4948 5.94454 12.4538 6.03654C12.4128 6.12854 12.3537 6.21134 12.28 6.28L11.561 7L12.281 7.718C12.4217 7.8587 12.5007 8.04952 12.5007 8.2485C12.5007 8.44748 12.4217 8.6383 12.281 8.779C12.1403 8.9197 11.9495 8.99874 11.7505 8.99874C11.5515 8.99874 11.3607 8.9197 11.22 8.779L10.5 8.06L9.78 8.78C9.71134 8.85369 9.62854 8.91279 9.53654 8.95378C9.44454 8.99477 9.34522 9.01682 9.24452 9.01859C9.14382 9.02037 9.04379 9.00184 8.9504 8.96412C8.85701 8.9264 8.77218 8.87026 8.70096 8.79904C8.62974 8.72782 8.5736 8.64299 8.53588 8.5496C8.49816 8.45621 8.47963 8.35618 8.48141 8.25548C8.48318 8.15478 8.50523 8.05546 8.54622 7.96346C8.58721 7.87146 8.64631 7.78866 8.72 7.72L9.44 7L8.72 6.28C8.58752 6.13782 8.5154 5.94978 8.51882 5.75548C8.52225 5.56118 8.60097 5.37579 8.73838 5.23838C8.87579 5.10097 9.06118 5.02225 9.25548 5.01882C9.44978 5.0154 9.63782 5.08752 9.78 5.22V5.22ZM13.75 9.25C13.75 9.05109 13.829 8.86032 13.9697 8.71967C14.1103 8.57902 14.3011 8.5 14.5 8.5H16.25C16.4489 8.5 16.6397 8.57902 16.7803 8.71967C16.921 8.86032 17 9.05109 17 9.25C17 9.44891 16.921 9.63968 16.7803 9.78033C16.6397 9.92098 16.4489 10 16.25 10H14.5C14.3011 10 14.1103 9.92098 13.9697 9.78033C13.829 9.63968 13.75 9.44891 13.75 9.25V9.25Z" fill="black"/>
</svg>
