<svg width="233" height="74" viewBox="0 0 233 74" fill="none" xmlns="http://www.w3.org/2000/svg">
<path d="M105.316 6.24544C105.324 6.40744 105.327 6.57144 105.327 6.73344C105.327 11.7234 101.53 17.4754 94.5868 17.4754C92.4538 17.4754 90.4708 16.8504 88.7998 15.7784C89.7882 15.898 90.7904 15.8215 91.7492 15.5535C92.7081 15.2855 93.6047 14.8312 94.3878 14.2164C93.6002 14.2016 92.837 13.9409 92.2048 13.471C91.5726 13.0011 91.103 12.3453 90.8618 11.5954C91.4279 11.7013 92.0104 11.6791 92.5668 11.5304C91.7124 11.3572 90.9442 10.8939 90.3924 10.219C89.8405 9.54413 89.5389 8.69922 89.5388 7.82744V7.78044C90.063 8.07204 90.6493 8.23421 91.2488 8.25344C90.4487 7.72002 89.8823 6.90136 89.6652 5.96455C89.4482 5.02773 89.5968 4.04339 90.0808 3.21244C91.0286 4.3789 92.2112 5.33294 93.5517 6.0126C94.8922 6.69225 96.3607 7.08231 97.8618 7.15744C97.7969 6.87506 97.7643 6.5862 97.7648 6.29644C97.7648 5.80088 97.8624 5.31017 98.0521 4.85235C98.2418 4.39452 98.5198 3.97854 98.8702 3.62818C99.2207 3.27781 99.6368 2.99991 100.095 2.81036C100.553 2.62081 101.043 2.52331 101.539 2.52344C102.055 2.5226 102.566 2.62788 103.04 2.83276C103.515 3.03763 103.942 3.33773 104.295 3.71444C105.14 3.54714 105.95 3.2374 106.692 2.79844C106.41 3.67265 105.82 4.41466 105.032 4.88644C105.78 4.79774 106.511 4.59752 107.2 4.29244C106.694 5.05088 106.056 5.71236 105.316 6.24544V6.24544Z" fill="black"/>
<g clip-path="url(#clip0)">
<path d="M47.9891 5.58822C47.9891 7.08222 48.4881 8.16022 49.4711 8.79322C50.2771 9.31322 51.2111 9.39122 51.6971 9.39122C51.8151 9.39122 51.9101 9.38522 51.9761 9.38122C51.9761 9.38122 51.8221 10.3852 52.5661 11.3772H52.5321C51.2431 11.3772 47.0391 11.6462 47.0391 15.1042C47.0391 18.6202 50.9001 18.7992 51.6751 18.7992C51.7361 18.7992 51.7721 18.7972 51.7721 18.7972C51.7801 18.7972 51.8351 18.7992 51.9301 18.7992C52.4271 18.7992 53.7121 18.7372 54.9051 18.1562C56.4531 17.4062 57.2381 16.0972 57.2381 14.2712C57.2381 12.5072 56.0421 11.4572 55.1691 10.6892C54.6361 10.2202 54.1751 9.81622 54.1751 9.42322C54.1751 9.02322 54.5121 8.72222 54.9371 8.34122C55.6261 7.72622 56.2761 6.84922 56.2761 5.19122C56.2761 3.73422 56.0871 2.75522 54.9221 2.13422C55.0431 2.07222 55.4731 2.02722 55.6851 1.99722C56.3161 1.91122 57.2391 1.81322 57.2391 1.29822V1.19922H52.6401C52.5941 1.20122 47.9891 1.37122 47.9891 5.58822V5.58822ZM55.4131 14.6012C55.5011 16.0072 54.2981 17.0442 52.4911 17.1752C50.6561 17.3102 49.1461 16.4842 49.0581 15.0792C49.0151 14.4032 49.3121 13.7432 49.8931 13.2162C50.4821 12.6832 51.2911 12.3532 52.1711 12.2882C52.2751 12.2822 52.3781 12.2762 52.4811 12.2762C54.1801 12.2772 55.3301 13.2752 55.4131 14.6012V14.6012ZM54.2121 4.62522C54.6631 6.21322 53.9821 7.87122 52.8961 8.17822C52.771 8.21305 52.6418 8.23055 52.5121 8.23022C51.5181 8.23022 50.5331 7.22422 50.1671 5.83722C49.9631 5.06122 49.9801 4.37922 50.2141 3.72522C50.4431 3.08022 50.8571 2.64722 51.3771 2.50022C51.5021 2.46522 51.6311 2.44722 51.7621 2.44722C52.9621 2.44722 53.7341 2.94522 54.2121 4.62522V4.62522ZM62.0001 7.99922V4.99922H60.0001V7.99922H57.0001V9.99922H60.0001V12.9992H62.0001V9.99922H65.0001V7.99922H62.0001Z" fill="black"/>
</g>
<path d="M14.0004 0.400391C8.69839 0.400391 4.40039 4.69839 4.40039 10.0004C4.40039 15.3024 8.69839 19.6004 14.0004 19.6004C19.3024 19.6004 23.6004 15.3024 23.6004 10.0004C23.6004 4.69839 19.3024 0.400391 14.0004 0.400391ZM11.6504 13.9794H9.70639V7.72339H11.6504V13.9794ZM10.6664 6.95539C10.0524 6.95539 9.65539 6.52039 9.65539 5.98239C9.65539 5.43339 10.0644 5.01139 10.6914 5.01139C11.3184 5.01139 11.7024 5.43339 11.7144 5.98239C11.7144 6.52039 11.3184 6.95539 10.6664 6.95539ZM18.7504 13.9794H16.8064V10.5124C16.8064 9.70539 16.5244 9.15739 15.8214 9.15739C15.2844 9.15739 14.9654 9.52839 14.8244 9.88539C14.7724 10.0124 14.7594 10.1924 14.7594 10.3714V13.9784H12.8144V9.71839C12.8144 8.93739 12.7894 8.28439 12.7634 7.72239H14.4524L14.5414 8.59139H14.5804C14.8364 8.18339 15.4634 7.58139 16.5124 7.58139C17.7914 7.58139 18.7504 8.43839 18.7504 10.2804V13.9794V13.9794Z" fill="black"/>
<path d="M20 57.0009H4C3.4863 57.0163 2.98744 56.8275 2.6126 56.4759C2.23776 56.1243 2.01749 55.6385 2 55.1249V42.8759C2.01749 42.3624 2.23779 41.8767 2.61266 41.5252C2.98753 41.1738 3.4864 40.9853 4 41.0009H20C20.5136 40.9853 21.0125 41.1738 21.3873 41.5252C21.7622 41.8767 21.9825 42.3624 22 42.8759V55.1259C21.9822 55.6394 21.7619 56.1249 21.3871 56.4763C21.0123 56.8276 20.5135 57.0163 20 57.0009ZM4 43.0009V54.9899L20 55.0009V43.0119L4 43.0009ZM13.43 53.0009H6C6.07353 52.173 6.46534 51.4058 7.093 50.8609C7.79183 50.1676 8.73081 49.7701 9.715 49.7509C10.699 49.7709 11.638 50.1679 12.337 50.8609C12.9645 51.406 13.3563 52.173 13.43 53.0009ZM18 52.0009H15V50.0009H18V52.0009ZM9.715 49.0009C9.44987 49.0101 9.18569 48.9647 8.93887 48.8674C8.69205 48.7702 8.46787 48.6232 8.28029 48.4356C8.0927 48.248 7.94571 48.0239 7.84847 47.777C7.75122 47.5302 7.70579 47.266 7.715 47.0009C7.70594 46.7358 7.75147 46.4717 7.84877 46.2249C7.94607 45.9782 8.09306 45.7541 8.28062 45.5665C8.46817 45.379 8.69229 45.232 8.93904 45.1347C9.18579 45.0374 9.44991 44.9918 9.715 45.0009C9.98009 44.9918 10.2442 45.0374 10.491 45.1347C10.7377 45.232 10.9618 45.379 11.1494 45.5665C11.3369 45.7541 11.4839 45.9782 11.5812 46.2249C11.6785 46.4717 11.7241 46.7358 11.715 47.0009C11.7242 47.266 11.6788 47.5302 11.5815 47.777C11.4843 48.0239 11.3373 48.248 11.1497 48.4356C10.9621 48.6232 10.738 48.7702 10.4911 48.8674C10.2443 48.9647 9.98013 49.0101 9.715 49.0009V49.0009ZM18 48.0009H14V46.0009H18V48.0009Z" fill="black"/>
<path d="M48 41H32C30.897 41 30 41.897 30 43V55C30 56.103 30.897 57 32 57H48C49.103 57 50 56.103 50 55V43C50 41.897 49.103 41 48 41ZM36.715 45C37.866 45 38.715 45.849 38.715 47C38.715 48.151 37.866 49 36.715 49C35.564 49 34.715 48.151 34.715 47C34.715 45.849 35.563 45 36.715 45ZM40.43 53H33V52.535C33 51.162 34.676 49.75 36.715 49.75C38.754 49.75 40.43 51.162 40.43 52.535V53ZM47 52H43V50H47V52ZM47 48H42V46H47V48Z" fill="black"/>
<path d="M78 27C76.5946 26.9997 75.2087 27.3286 73.9532 27.9603C72.6978 28.5921 71.6079 29.5091 70.7707 30.6379C69.9335 31.7667 69.3723 33.076 69.1322 34.4607C68.8921 35.8455 68.9797 37.2672 69.388 38.612L59 49V55H65L75.388 44.612C76.6259 44.9878 77.9303 45.0922 79.2122 44.9183C80.4941 44.7443 81.7235 44.2961 82.8165 43.604C83.9095 42.912 84.8405 41.9925 85.546 40.9081C86.2515 39.8237 86.7149 38.6 86.9047 37.3203C87.0945 36.0407 87.0062 34.7351 86.6458 33.4926C86.2854 32.2502 85.6613 31.1 84.8162 30.1206C83.9711 29.1411 82.9247 28.3553 81.7485 27.8168C80.5722 27.2783 79.2937 26.9997 78 27V27ZM78 43C77.3115 42.9996 76.6268 42.8979 75.968 42.698L74.821 42.35L73.974 43.197L70.793 46.378L69.414 45L68 46.414L69.379 47.793L67.793 49.379L66.414 48L65 49.414L66.379 50.793L64.172 53H61V49.828L70.802 40.026L71.65 39.179L71.302 38.032C70.8746 36.623 70.9023 35.1151 71.3814 33.7228C71.8604 32.3304 72.7662 31.1246 73.97 30.2768C75.1739 29.429 76.6144 28.9824 78.0867 29.0005C79.559 29.0186 80.9881 29.5006 82.1707 30.3777C83.3533 31.2549 84.2292 32.4826 84.6738 33.8863C85.1184 35.29 85.1091 36.7981 84.6471 38.1962C84.1852 39.5942 83.2941 40.811 82.1008 41.6735C80.9074 42.5359 79.4724 43.0001 78 43V43Z" fill="black"/>
<path d="M79 37C80.1046 37 81 36.1046 81 35C81 33.8954 80.1046 33 79 33C77.8954 33 77 33.8954 77 35C77 36.1046 77.8954 37 79 37Z" fill="black"/>
<defs>
<clipPath id="clip0">
<rect width="18" height="18" fill="white" transform="translate(47 1)"/>
</clipPath>
</defs>
</svg>
