<svg width="48" height="48" viewBox="0 0 48 48" fill="none" xmlns="http://www.w3.org/2000/svg">
<path d="M24 44C26.627 44.0034 29.2287 43.4876 31.6556 42.4823C34.0826 41.477 36.2869 40.002 38.142 38.142C40.002 36.2869 41.477 34.0826 42.4823 31.6556C43.4876 29.2287 44.0034 26.627 44 24C44.0034 21.3731 43.4876 18.7714 42.4823 16.3444C41.4769 13.9175 40.0019 11.7131 38.142 9.85802C36.2869 7.99804 34.0826 6.52302 31.6556 5.5177C29.2287 4.51239 26.627 3.99661 24 4.00002C21.3731 3.99667 18.7714 4.51247 16.3444 5.51778C13.9175 6.52309 11.7131 7.99809 9.85802 9.85802C7.99809 11.7131 6.52309 13.9175 5.51778 16.3444C4.51247 18.7714 3.99667 21.3731 4.00002 24C3.99661 26.627 4.51239 29.2287 5.5177 31.6556C6.52302 34.0826 7.99804 36.2869 9.85802 38.142C11.7131 40.0019 13.9175 41.4769 16.3444 42.4823C18.7714 43.4876 21.3731 44.0034 24 44V44Z" fill="#2F88FF" stroke="black" stroke-width="4" stroke-linejoin="round"/>
<path d="M24 28.625V24.625C25.1867 24.625 26.3467 24.2731 27.3334 23.6138C28.3201 22.9545 29.0892 22.0175 29.5433 20.9211C29.9974 19.8247 30.1162 18.6183 29.8847 17.4545C29.6532 16.2906 29.0818 15.2215 28.2426 14.3824C27.4035 13.5432 26.3344 12.9718 25.1705 12.7403C24.0067 12.5088 22.8003 12.6276 21.7039 13.0817C20.6075 13.5359 19.6705 14.3049 19.0112 15.2916C18.3519 16.2783 18 17.4383 18 18.625" stroke="white" stroke-width="4" stroke-linecap="round" stroke-linejoin="round"/>
<path fill-rule="evenodd" clip-rule="evenodd" d="M24 37.625C24.663 37.625 25.2989 37.3616 25.7678 36.8928C26.2366 36.4239 26.5 35.788 26.5 35.125C26.5 34.462 26.2366 33.8261 25.7678 33.3572C25.2989 32.8884 24.663 32.625 24 32.625C23.337 32.625 22.7011 32.8884 22.2322 33.3572C21.7634 33.8261 21.5 34.462 21.5 35.125C21.5 35.788 21.7634 36.4239 22.2322 36.8928C22.7011 37.3616 23.337 37.625 24 37.625V37.625Z" fill="white"/>
</svg>
