<svg width="12" height="8" viewBox="0 0 12 8" fill="none" xmlns="http://www.w3.org/2000/svg">
<path d="M11.65 3.65053L8.86 0.860528C8.79045 0.789079 8.70116 0.740009 8.60357 0.719596C8.50597 0.699183 8.4045 0.708357 8.31215 0.745943C8.21979 0.783529 8.14075 0.847817 8.08515 0.930581C8.02954 1.01334 7.99989 1.11082 8 1.21053V3.00053H1C0.45 3.00053 0 3.45053 0 4.00053C0 4.55053 0.45 5.00053 1 5.00053H8V6.79053C8 7.24053 8.54 7.46053 8.85 7.14053L11.64 4.35053C11.84 4.16053 11.84 3.84053 11.65 3.65053V3.65053Z" fill="black"/>
</svg>
