<svg width="232" height="58" viewBox="0 0 232 58" fill="none" xmlns="http://www.w3.org/2000/svg">
<path d="M91.5571 33.9712L104.359 49.7142H94.25L82.8571 35.2558V49.7142H74.5712V8.28584H82.8571V32.6458L93.38 20.7142H103.944L91.5571 33.9712V33.9712ZM58.4142 19.8858C56.6 19.913 54.8194 20.3795 53.2249 21.2452C51.6305 22.111 50.2696 23.3503 49.2588 24.8571V20.7142H41.4288V49.7142H49.7142V36.1671C49.6054 35.1838 49.7001 34.1886 49.9925 33.2435C50.2849 32.2984 50.7687 31.4236 51.4138 30.6736C52.0589 29.9236 52.8515 29.3143 53.7422 28.8838C54.6329 28.4533 55.6027 28.2108 56.5912 28.1712C61.3971 28.1712 62.1429 32.8942 62.1429 36.1671V49.7142H70.4288V34.3442C70.4288 25.23 67.4042 19.8858 58.58 19.8858H58.4142V19.8858ZM132.571 35.8771C132.603 36.4843 132.603 37.0928 132.571 37.7H110.821V37.99C111.174 39.7176 112.131 41.2629 113.521 42.3486C114.91 43.4342 116.641 43.9893 118.403 43.9142C119.8 43.9749 121.196 43.7531 122.506 43.262C123.816 42.7709 125.013 42.0205 126.026 41.0558L131.536 45.1988C129.789 46.9809 127.689 48.3772 125.37 49.2977C123.051 50.2181 120.564 50.6423 118.071 50.5429C116.007 50.6734 113.938 50.3593 112.005 49.6218C110.072 48.8843 108.32 47.7405 106.867 46.2679C105.414 44.7952 104.294 43.0278 103.582 41.0852C102.871 39.1425 102.585 37.0698 102.743 35.0071C102.7 32.9708 103.078 30.9475 103.852 29.0635C104.626 27.1795 105.779 25.475 107.241 24.0563C108.702 22.6377 110.44 21.5352 112.346 20.8177C114.252 20.1002 116.286 19.783 118.32 19.8858C126.109 19.8858 132.571 25.3958 132.571 35.8771ZM124.866 32.3142C124.835 31.4936 124.638 30.6878 124.286 29.9458C123.934 29.2039 123.435 28.5415 122.819 27.9988C122.202 27.4561 121.482 27.0447 120.701 26.7894C119.921 26.5342 119.097 26.4405 118.279 26.5142C114.636 26.1204 111.336 28.6864 110.821 32.3142H124.866ZM8.28584 8.28584H0V49.7142H24.8571V41.4292H8.28584V8.28584ZM157.429 8.28584H165.714V49.7142H157.884V46.8142C156.89 48.0391 155.623 49.0144 154.184 49.6618C152.745 50.3093 151.175 50.6111 149.599 50.5429C147.673 50.4935 145.778 50.0507 144.03 49.2419C142.281 48.433 140.717 47.2752 139.432 45.8395C138.148 44.4038 137.171 42.7206 136.561 40.8934C135.951 39.0661 135.721 37.1335 135.886 35.2142C135.69 33.2921 135.897 31.3505 136.493 29.5126C137.088 27.6748 138.06 25.9811 139.346 24.5393C140.632 23.0975 142.204 21.9392 143.962 21.1381C145.72 20.3369 147.625 19.9104 149.557 19.8858C150.996 19.8228 152.433 20.0467 153.784 20.5446C155.136 21.0425 156.375 21.8044 157.429 22.7858V8.28584V8.28584ZM158.05 35.2142C158.18 34.2575 158.104 33.2841 157.826 32.3594C157.548 31.4348 157.075 30.5805 156.439 29.8541C155.803 29.1278 155.019 28.5463 154.139 28.1488C153.259 27.7513 152.304 27.5471 151.339 27.55C147.375 27.8377 144.372 31.2461 144.586 35.2142C144.372 39.1822 147.375 42.591 151.339 42.8788C152.304 42.8816 153.259 42.6774 154.139 42.2799C155.019 41.8824 155.803 41.3009 156.439 40.5745C157.076 39.8481 157.548 38.9937 157.826 38.069C158.104 37.1443 158.18 36.1708 158.05 35.2142V35.2142ZM33.1429 7.45708C31.8105 7.47596 30.5349 7.99972 29.5737 8.92259C28.6125 9.84546 28.0372 11.0987 27.9642 12.4292C27.9642 15.2889 30.2828 17.6075 33.1429 17.6075C36.003 17.6075 38.3208 15.2884 38.3208 12.4292C38.2476 11.0988 37.6724 9.8458 36.7113 8.92303C35.7501 8.00026 34.4747 7.47652 33.1425 7.45753L33.1429 7.45708ZM29 49.7142H37.2858V20.7142H29V49.7142ZM232 4.14292V53.8571C232 54.9559 231.564 56.0096 230.787 56.7866C230.01 57.5635 228.956 58 227.857 58H178.143C177.044 58 175.99 57.5635 175.213 56.7866C174.436 56.0096 174 54.9559 174 53.8571V4.14292C174 3.04415 174.436 1.99038 175.213 1.21343C175.99 0.436485 177.044 0 178.143 0L227.857 0C228.956 0 230.01 0.436485 230.787 1.21343C231.564 1.99038 232 3.04415 232 4.14292V4.14292ZM190.571 20.7142H182.286V49.7142H190.571V20.7142ZM191.607 12.4288C191.607 9.56864 189.288 7.25 186.429 7.25C183.569 7.25 181.25 9.56864 181.25 12.4288C181.25 15.2884 183.569 17.6071 186.429 17.6071C189.288 17.6071 191.607 15.2884 191.607 12.4288V12.4288ZM223.714 34.3442C223.714 25.23 220.69 19.8858 211.866 19.8858C210.023 19.886 208.209 20.3396 206.584 21.2065C204.958 22.0735 203.571 23.3272 202.544 24.8571V20.7142H194.714V49.7142H203V36.1671C202.891 35.1838 202.986 34.1886 203.278 33.2435C203.571 32.2984 204.055 31.4236 204.7 30.6736C205.345 29.9236 206.137 29.3143 207.028 28.8838C207.919 28.4533 208.889 28.2108 209.877 28.1712C214.683 28.1712 215.429 32.8942 215.429 36.1671V49.7142H223.714V34.3442Z" fill="#0A66C2"/>
</svg>
